<svg width="478.944" height="124.4" xmlns="http://www.w3.org/2000/svg" viewBox="10.528 12.8 478.944 124.4" style="background:0 0" preserveAspectRatio="xMidYMid"><defs><linearGradient id="editing-shiny-gradient" x1=".985" x2=".015" y1=".621" y2=".379" gradientUnits="objectBoundingBox"><stop offset="0" stop-color="#ffcb08"/><stop offset=".5" stop-color="#e10057"/><stop offset="1" stop-color="#5a1a80"/></linearGradient><linearGradient id="editing-shiny-gradient2" x1="0" x2="0" y1="0" y2="1"><stop offset=".2" stop-color="#fff" stop-opacity=".8"/><stop offset=".8" stop-color="#fff" stop-opacity="0"/></linearGradient><filter id="editing-shiny2" x="-100%" y="-100%" width="300%" height="300%"><feMorphology radius="2"/></filter><filter id="editing-shiny" x="-100%" y="-100%" width="300%" height="300%"><feFlood flood-color="#fff" result="flood"/><feConvolveMatrix in="SourceGraphic" result="conv" order="8,8" divisor="1" kernelMatrix="0 0 0 0 0 0 0 0 0 0 0 1 1 0 0 0 0 0 0 1 1 0 0 0 0 0 1 0 0 1 0 0 0 0 1 0 0 1 0 0 0 1 0 0 0 0 1 0 0 1 1 0 0 1 1 0 0 0 0 1 1 0 0 0"/><feOffset dy="4" in="conv" result="offset"/><feComposite operator="in" in="flood" in2="offset" result="comp"/><feGaussianBlur in="offset" stdDeviation="3" result="shadow"/><feColorMatrix in="shadow" values="0.7 0 0 0 0 0 0.7 0 0 0 0 0 0.7 0 0 0 0 0 0.3 0" result="dark-shadow"/><feOffset dy="4" in="dark-shadow" result="offset-shadow"/><feOffset dy="2" in="conv" result="offset-2"/><feComposite operator="out" in="offset" in2="offset-2" result="edge-diff"/><feGaussianBlur in="edge-diff" stdDeviation="1" result="edge-blur"/><feColorMatrix in="edge-blur" result="edge-shadow" values="0 0 0 0 0 0 0 0 0 0 0 0 0 0 0 0 0 0 0.5 0"/><feComposite operator="in" in="edge-shadow" in2="offset" result="edge-shadow-in"/><feOffset dy="1" in="edge-shadow-in" result="edge-shadow-final"/><feMerge result="out"><feMergeNode in="offset-shadow"/><feMergeNode in="comp"/><feMergeNode in="edge-shadow-final"/><feMergeNode in="SourceGraphic"/></feMerge></filter></defs><g filter="url(#editing-shiny)"><path d="M26.93-44.02q16.17 0 16.17 11.42 0 6.27-4.03 10.03-3.96 3.76-10.89 3.76-3.23 0-5.74-1.85-1.19-.79-1.98-1.85 4.82 0 7.36-2.93 2.54-2.94 2.54-8.68t-5.68-5.74H23.1q-.4 0-.73.06L14.78 0H.46l8.12-43.23q7.06-.66 11.15-.73 4.1-.06 7.2-.06ZM44.42-16.1q0-12.48 6.47-20.33 6.86-8.52 18.81-8.52 8.64 0 13 4.19 4.35 4.2 4.35 13.04 0 13.46-6.86 21.32-6.8 7.72-18.22 7.72-8.91 0-13.23-4.46-4.32-4.45-4.32-12.96Zm17.36-13.67q-2.97 11.88-2.97 21.26 0 2.24.76 3.69.75 1.45 2.77 1.45 2.01 0 3.26-.95 1.26-.96 2.25-3.14 1.58-3.56 3.07-11.12 1.48-7.56 1.61-10.69.14-3.14.14-5.51 0-2.38-.73-3.9-.73-1.51-2.67-1.51-1.95 0-3.27 1.18-2.44 2.25-4.22 9.24ZM103.75 0H89.69l7.53-40.13.72-3.43h14.13L103.75 0Zm26.8-3.89q-1.78 5.21-8.65 5.21-5.08 0-8.58-6.07-3.56-6.07-4.22-15.97 7.26-13.27 12.27-18.75 4.82-5.21 9.84-5.21 2.7 0 4.65 1.45 1.95 1.45 2.41 3.76-2.24.93-3.3 1.65-2.64 1.98-6.2 6.4l-6.01 7.2q-1.45 1.71-2.05 2.51.99 5.54 3.96 11.02 2.84 5.21 5.88 6.8Zm33.79-6.27q1.25 1.58 1.25 4.15 0 3.57-2.64 5.45-2.64 1.88-6.79 1.88-2.38 0-6.01-.53-7.13-1.12-9.31-1.12-2.17 0-3.03.1-.86.1-2.25.23l8.12-43.56h28.45q0 4.03-1.95 6.14-1.95 2.11-5.77 2.11-3.83 0-7.73-1.78l-2.04 11.55h11.75q0 3.5-1.72 5.44-1.72 1.95-4.59 1.95t-4.65-.66q-1.78-.66-1.98-.86l-2.38 12.48q1.59.19 4.56.19 5.08 0 8.71-3.16Zm50.16-17.23Q214.5.73 184.01.73q-4.89 0-12.94-1.19l7.39-39.01q.53-2.64.86-4.16 10.03-.72 14.49-.72 4.45 0 8.55.92 4.09.93 6.79 2.97 5.35 4.03 5.35 13.07Zm-13.6-2.44q0-9.84-7.06-9.84h-.66q-.33 0-.66.07l-6.8 35.44q.27.13.53.13h.53q2.44 0 4.98-1.51 2.54-1.52 4.52-4.62 4.62-7.2 4.62-19.67Zm45.15 19.67q1.25 1.58 1.25 4.15 0 3.57-2.64 5.45-2.64 1.88-6.8 1.88-2.37 0-6-.53-7.13-1.12-9.31-1.12-2.18 0-3.03.1-.86.1-2.25.23l8.12-43.56h28.45q0 4.03-1.95 6.14-1.95 2.11-5.78 2.11-3.82 0-7.72-1.78l-2.04 11.55h11.74q0 3.5-1.71 5.44-1.72 1.95-4.59 1.95t-4.65-.66q-1.78-.66-1.98-.86l-2.38 12.48q1.59.19 4.56.19 5.08 0 8.71-3.16Zm-12.74-39.93 16.17-6.74q1.85 1.32 1.85 3.24 0 1.91-.76 3.07-.76 1.15-2.01 1.94-2.31 1.32-6.6 1.46l-7.86.26-.79-3.23Zm22.11 8.97q3.1-3.63 8.25-3.63 4.09 0 6.27 1.59 2.18 1.65 3.63 5.67l2.77 7.86 9.97-13.86h8.91l-16.17 21.45 4.16 11.74q.92 2.64 2.54 4.59 1.61 1.95 3.07 2.28-1.32 2.51-3.6 3.63-2.28 1.12-5.61 1.12-3.33 0-5.68-2.18-2.34-2.18-4.12-7.06l-1.92-5.28L257.93 0h-8.12l15.18-21.05-4.75-13.27q-1.06-2.9-2.11-4.39-1.06-1.48-2.71-2.41Zm37.95 48.58q0-2.18 1.39-3.53 1.38-1.36 3.49-1.36h27.79q.33 1.13.33 1.98 0 1.98-1.35 3.37-1.36 1.39-4.13 1.39h-27.26q-.26-.86-.26-1.85Z" fill="url(#editing-shiny-gradient)" transform="translate(86.585 108.07)"/></g><g filter="url(#editing-shiny2)"><path d="M26.93-44.02q16.17 0 16.17 11.42 0 6.27-4.03 10.03-3.96 3.76-10.89 3.76-3.23 0-5.74-1.85-1.19-.79-1.98-1.85 4.82 0 7.36-2.93 2.54-2.94 2.54-8.68t-5.68-5.74H23.1q-.4 0-.73.06L14.78 0H.46l8.12-43.23q7.06-.66 11.15-.73 4.1-.06 7.2-.06ZM44.42-16.1q0-12.48 6.47-20.33 6.86-8.52 18.81-8.52 8.64 0 13 4.19 4.35 4.2 4.35 13.04 0 13.46-6.86 21.32-6.8 7.72-18.22 7.72-8.91 0-13.23-4.46-4.32-4.45-4.32-12.96Zm17.36-13.67q-2.97 11.88-2.97 21.26 0 2.24.76 3.69.75 1.45 2.77 1.45 2.01 0 3.26-.95 1.26-.96 2.25-3.14 1.58-3.56 3.07-11.12 1.48-7.56 1.61-10.69.14-3.14.14-5.51 0-2.38-.73-3.9-.73-1.51-2.67-1.51-1.95 0-3.27 1.18-2.44 2.25-4.22 9.24ZM103.75 0H89.69l7.53-40.13.72-3.43h14.13L103.75 0Zm26.8-3.89q-1.78 5.21-8.65 5.21-5.08 0-8.58-6.07-3.56-6.07-4.22-15.97 7.26-13.27 12.27-18.75 4.82-5.21 9.84-5.21 2.7 0 4.65 1.45 1.95 1.45 2.41 3.76-2.24.93-3.3 1.65-2.64 1.98-6.2 6.4l-6.01 7.2q-1.45 1.71-2.05 2.51.99 5.54 3.96 11.02 2.84 5.21 5.88 6.8Zm33.79-6.27q1.25 1.58 1.25 4.15 0 3.57-2.64 5.45-2.64 1.88-6.79 1.88-2.38 0-6.01-.53-7.13-1.12-9.31-1.12-2.17 0-3.03.1-.86.1-2.25.23l8.12-43.56h28.45q0 4.03-1.95 6.14-1.95 2.11-5.77 2.11-3.83 0-7.73-1.78l-2.04 11.55h11.75q0 3.5-1.72 5.44-1.72 1.95-4.59 1.95t-4.65-.66q-1.78-.66-1.98-.86l-2.38 12.48q1.59.19 4.56.19 5.08 0 8.71-3.16Zm50.16-17.23Q214.5.73 184.01.73q-4.89 0-12.94-1.19l7.39-39.01q.53-2.64.86-4.16 10.03-.72 14.49-.72 4.45 0 8.55.92 4.09.93 6.79 2.97 5.35 4.03 5.35 13.07Zm-13.6-2.44q0-9.84-7.06-9.84h-.66q-.33 0-.66.07l-6.8 35.44q.27.13.53.13h.53q2.44 0 4.98-1.51 2.54-1.52 4.52-4.62 4.62-7.2 4.62-19.67Zm45.15 19.67q1.25 1.58 1.25 4.15 0 3.57-2.64 5.45-2.64 1.88-6.8 1.88-2.37 0-6-.53-7.13-1.12-9.31-1.12-2.18 0-3.03.1-.86.1-2.25.23l8.12-43.56h28.45q0 4.03-1.95 6.14-1.95 2.11-5.78 2.11-3.82 0-7.72-1.78l-2.04 11.55h11.74q0 3.5-1.71 5.44-1.72 1.95-4.59 1.95t-4.65-.66q-1.78-.66-1.98-.86l-2.38 12.48q1.59.19 4.56.19 5.08 0 8.71-3.16Zm-12.74-39.93 16.17-6.74q1.85 1.32 1.85 3.24 0 1.91-.76 3.07-.76 1.15-2.01 1.94-2.31 1.32-6.6 1.46l-7.86.26-.79-3.23Zm22.11 8.97q3.1-3.63 8.25-3.63 4.09 0 6.27 1.59 2.18 1.65 3.63 5.67l2.77 7.86 9.97-13.86h8.91l-16.17 21.45 4.16 11.74q.92 2.64 2.54 4.59 1.61 1.95 3.07 2.28-1.32 2.51-3.6 3.63-2.28 1.12-5.61 1.12-3.33 0-5.68-2.18-2.34-2.18-4.12-7.06l-1.92-5.28L257.93 0h-8.12l15.18-21.05-4.75-13.27q-1.06-2.9-2.11-4.39-1.06-1.48-2.71-2.41Zm37.95 48.58q0-2.18 1.39-3.53 1.38-1.36 3.49-1.36h27.79q.33 1.13.33 1.98 0 1.98-1.35 3.37-1.36 1.39-4.13 1.39h-27.26q-.26-.86-.26-1.85Z" fill="url(#editing-shiny-gradient2)" transform="translate(86.585 108.07)"/></g><style></style></svg>